<?xml version="1.0" encoding="iso-8859-1"?>
<!-- Generator: Adobe Illustrator 19.0.0, SVG Export Plug-In . SVG Version: 6.00 Build 0)  -->
<svg version="1.1" id="Layer_1" xmlns="http://www.w3.org/2000/svg" xmlns:xlink="http://www.w3.org/1999/xlink" x="0px" y="0px"
	 viewBox="0 0 512 512" style="enable-background:new 0 0 512 512;" xml:space="preserve">
<g>
	<g>
		<path d="M480.6,228.731c-20.726-37.899-52.833-68.109-83.883-97.324c-5.46-5.138-10.619-9.991-15.748-14.916
			c-19.241-18.475-38.722-36.288-57.562-53.512c-18.702-17.099-38.04-34.78-57.011-52.996L256.001,0l-10.395,9.981
			c-18.971,18.216-38.31,35.897-57.011,52.996c-18.84,17.226-38.321,35.037-57.562,53.512c-5.129,4.925-10.285,9.777-15.746,14.914
			C84.235,160.62,52.127,190.831,31.4,228.731C4.544,277.84,5.288,332.38,33.445,378.37c34.926,57.043,83.617,69.326,118.313,69.585
			c18.044,0.142,36.075-3.004,53.261-9.192c-3.776,15.589-8.613,24.071-12.691,26.941l-6.372,4.484V512h140.087h0v-41.812
			l-6.372-4.484c-4.078-2.869-8.916-11.351-12.691-26.94c17.186,6.188,35.232,9.334,53.26,9.192
			c34.697-0.259,83.388-12.542,118.313-69.586C506.711,332.38,507.457,277.839,480.6,228.731z M452.955,362.695
			c-22.263,36.362-53.531,54.948-92.936,55.242c-22.387,0.123-44.799-5.963-64.829-17.727l-25.602-15.037l3.072,29.532
			c3.306,31.782,10.21,53.964,20.998,67.276h-75.314c10.788-13.311,17.692-35.494,20.998-67.274l3.072-29.532l-25.603,15.037
			c-20.029,11.763-42.453,17.894-64.829,17.727c-39.404-0.294-70.673-18.881-92.936-55.242
			c-22.388-36.568-22.865-80.146-1.309-119.561c18.436-33.713,48.777-62.261,78.119-89.869c5.273-4.962,10.728-10.093,15.966-15.123
			c18.976-18.221,38.32-35.907,57.026-53.011c15.448-14.124,31.326-28.642,47.151-43.597c15.825,14.955,31.703,29.473,47.151,43.597
			c18.707,17.104,38.051,34.79,57.026,53.011c5.24,5.031,10.694,10.162,15.969,15.125c29.34,27.607,59.681,56.154,78.117,89.866
			C475.82,282.549,475.343,326.128,452.955,362.695z"/>
	</g>
</g>
<g>
</g>
<g>
</g>
<g>
</g>
<g>
</g>
<g>
</g>
<g>
</g>
<g>
</g>
<g>
</g>
<g>
</g>
<g>
</g>
<g>
</g>
<g>
</g>
<g>
</g>
<g>
</g>
<g>
</g>
</svg>
